<svg width="8" height="5" viewBox="0 0 8 5" fill="none" xmlns="http://www.w3.org/2000/svg">
<path d="M2.99999 1.99992L1.20709 0.207031C0.93095 -0.0691111 0.483235 -0.0691112 0.207092 0.207031C-0.0690501 0.483174 -0.0690504 0.930889 0.207092 1.20703L3.20709 4.20703C3.48323 4.48317 3.93095 4.48317 4.20709 4.20703L7.20709 1.20703C7.48323 0.930889 7.48323 0.483174 7.20709 0.207031C6.93095 -0.0691112 6.48323 -0.0691109 6.20709 0.207031L4.4142 1.99992C4.02367 2.39045 3.39051 2.39045 2.99999 1.99992Z" fill="#FFF6F6"/>
<path d="M2.99999 1.99992L1.20709 0.207031C0.93095 -0.0691111 0.483235 -0.0691112 0.207092 0.207031C-0.0690501 0.483174 -0.0690504 0.930889 0.207092 1.20703L3.20709 4.20703C3.48323 4.48317 3.93095 4.48317 4.20709 4.20703L7.20709 1.20703C7.48323 0.930889 7.48323 0.483174 7.20709 0.207031C6.93095 -0.0691112 6.48323 -0.0691109 6.20709 0.207031L4.4142 1.99992C4.02367 2.39045 3.39051 2.39045 2.99999 1.99992Z" fill="white"/>
</svg>
